Coordinates
version=1
nRows=24
nColumns=24
inDegrees=yes

Units are S.I. units (second, meters, Newtons, ...)
Angles are in degrees.

endheader
time	pelvis_tilt	pelvis_list	pelvis_rotation	pelvis_tx	pelvis_ty	pelvis_tz	hip_flexion_r	hip_adduction_r	hip_rotation_r	knee_angle_r	ankle_angle_r	subtalar_angle_r	mtp_angle_r	hip_flexion_l	hip_adduction_l	hip_rotation_l	knee_angle_l	ankle_angle_l	subtalar_angle_l	mtp_angle_l	lumbar_extension	lumbar_bending	lumbar_rotation
      1.23300000	     -3.08805703	      2.32108031	     -1.33995483	      0.22739437	      1.02990163	      0.26368838	     18.14429885	     -3.22837377	     -6.29795100	    -62.56069488	      0.54963861	     -7.18354988	      5.73719116	     11.32226794	      6.28537691	      2.84962030	    -11.98796889	      3.73451495	     -9.05280866	     -1.10934225	     -2.95248851	     -3.43147783	      2.82413844
      1.23716667	     -3.12116242	      2.24014207	     -1.42494558	      0.23276773	      1.03053882	      0.26351835	     18.69858930	     -3.06938623	     -6.08846514	    -62.20148899	      1.19616691	     -7.36328116	      5.74113588	     10.90885836	      6.20719223	      2.84771029	    -11.76449218	      3.88947776	     -9.07826488	     -1.11181922	     -2.94721190	     -3.30459511	      2.74963783
      1.24133333	     -3.15256245	      2.15363378	     -1.52406403	      0.23810567	      1.03115350	      0.26335323	     19.24575096	     -2.89889557	     -5.85849130	    -61.79599923	      1.88394162	     -7.38788512	      5.72885787	     10.49768716	      6.12150061	      2.82297753	    -11.54459339	      4.02204768	     -9.08213816	     -1.12681019	     -2.98512604	     -3.15160176	      2.71013202
      1.24550000	     -3.18772677	      2.07614560	     -1.62931243	      0.24348872	      1.03174542	      0.26322929	     19.77824944	     -2.73002902	     -5.62651959	    -61.32018044	      2.45516854	     -7.54416742	      5.72329393	     10.07667355	      6.04239479	      2.78143254	    -11.29979358	      4.16454355	     -9.09121706	     -1.13578766	     -2.96008728	     -3.03135999	      2.69394890
      1.24966667	     -3.20063318	      1.99702608	     -1.74071367	      0.24882012	      1.03233983	      0.26312363	     20.27927920	     -2.55567676	     -5.38435624	    -60.79914574	      3.05595309	     -7.59826431	      5.69502377	      9.63868253	      5.96066713	      2.72969238	    -11.06380735	      4.29354262	     -9.07878985	     -1.16238735	     -3.01622613	     -2.89831077	      2.72025013
      1.25383333	     -3.23147614	      1.91296275	     -1.84902348	      0.25417451	      1.03289301	      0.26302908	     20.77900009	     -2.37177626	     -5.14734563	    -60.20999441	      3.57987606	     -7.71161251	      5.65995989	      9.21452897	      5.87412150	      2.67801850	    -10.81927070	      4.43094437	     -9.07419512	     -1.19267606	     -3.01719512	     -2.76828205	      2.73783171
      1.25800000	     -3.25987686	      1.83301537	     -1.95611575	      0.25952217	      1.03340107	      0.26294692	     21.26318744	     -2.19149096	     -4.91627456	    -59.57081225	      4.05407433	     -7.85169931	      5.64097400	      8.78681297	      5.79326204	      2.62474549	    -10.57093721	      4.57280824	     -9.07915429	     -1.21117839	     -3.00882872	     -2.63635892	      2.73561432
      1.26216667	     -3.27868794	      1.74287075	     -2.06000435	      0.26485288	      1.03391514	      0.26287677	     21.71731631	     -1.99654433	     -4.68646224	    -58.86852037	      4.50297397	     -7.97221422	      5.61525966	      8.35225759	      5.70251251	      2.57227213	    -10.32873887	      4.70702384	     -9.08023169	     -1.23539156	     -3.03206496	     -2.49391099	      2.74280189
      1.26633333	     -3.29221143	      1.65498643	     -2.18752433	      0.27015682	      1.03439287	      0.26286806	     22.15688905	     -1.78849479	     -4.42369066	    -58.11968020	      4.92397891	     -8.05472290	      4.59376914	      7.92187953	      5.60574033	      2.43532578	    -10.10339855	      4.88414916	     -8.95605259	     -2.03891622	     -3.06525898	     -2.37159349	      2.93075724
      1.27050000	     -3.33566760	      1.58083212	     -2.26932783	      0.27545256	      1.03476814	      0.26278571	     22.61109102	     -1.61749870	     -4.21580828	    -57.32832918	      5.31316216	     -8.18382817	      4.58480153	      7.51995084	      5.54009927	      2.43163519	     -9.86886217	      5.03602487	     -8.99933759	     -2.04925136	     -3.05979379	     -2.24715792	      2.86405628
      1.27466667	     -3.35916538	      1.48901992	     -2.35396310	      0.28073277	      1.03516757	      0.26272901	     23.02030369	     -1.42269298	     -4.00659302	    -56.46780241	      5.64707390	     -8.29969940	      4.56930150	      7.09891602	      5.45434365	      2.40639078	     -9.63520443	      5.16235664	     -9.03769693	     -2.06589124	     -3.08925981	     -2.10491536	      2.81913944
      1.27883333	     -3.36898444	      1.39786992	     -2.42989271	      0.28598205	      1.03554834	      0.26267735	     23.39551636	     -1.22737001	     -3.79626226	    -55.54870854	      5.92158261	     -8.43163619	      4.53284917	      6.67216891	      5.37162440	      2.39046756	     -9.41683652	      5.27509790	     -9.08484084	     -2.10151852	     -3.15155308	     -1.98165440	      2.78574096
      1.28300000	     -3.38811194	      1.30666397	     -2.50404246	      0.29122877	      1.03587998	      0.26262592	     23.76391646	     -1.03574410	     -3.59659206	    -54.58040095	      6.15753857	     -8.56826596	      4.49036429	      6.25400165	      5.29010920	      2.37658879	     -9.19352153	      5.40125107	     -9.12947535	     -2.14288425	     -3.18834681	     -1.84823754	      2.75998476
      1.28716667	     -3.43928890	      1.25040824	     -2.57896113	      0.29647023	      1.03608572	      0.26257426	     24.16489177	     -0.88620173	     -3.39895526	    -53.59457016	      6.38664474	     -8.68268334	      4.46203094	      5.87134123	      5.24709557	      2.35401061	     -8.96446441	      5.53756587	     -9.16837142	     -2.17127289	     -3.17936422	     -1.74413975	      2.73022267
      1.29133333	     -3.46062388	      1.14264294	     -2.62489447	      0.30167894	      1.03635636	      0.26251565	     24.48719768	     -0.68258643	     -3.22356237	    -52.50184054	      6.51636211	     -8.85283678	      4.40715652	      5.47455238	      5.15046951	      2.35916964	     -8.77663973	      5.65679923	     -9.22595879	     -2.22446253	     -3.22744602	     -1.60101492	      2.69629312
      1.29550000	     -3.50893770	      1.07858509	     -2.67689232	      0.30687928	      1.03650306	      0.26247002	     24.83979113	     -0.52791106	     -3.04396224	    -51.39646265	      6.63545669	     -9.01551948	      4.35038751	      5.10489707	      5.10147866	      2.35804991	     -8.57612079	      5.78251004	     -9.28540816	     -2.28118172	     -3.23412397	     -1.50075191	      2.64987002
      1.29966667	     -3.55733805	      1.02237155	     -2.71806397	      0.31207641	      1.03663301	      0.26240249	     25.17122116	     -0.38917952	     -2.87679720	    -50.23539911	      6.67338544	     -9.21130744	      3.58902525	      4.71269681	      5.07153306	      2.47300798	     -8.32226119	      5.80346859	     -9.53828274	     -3.13563908	     -3.23798696	     -1.41334583	      2.49569154
      1.30383333	     -3.58092123	      0.94694009	     -2.74383262	      0.31726524	      1.03676118	      0.26233477	     25.44675949	     -0.24019196	     -2.73852747	    -49.01293974	      6.71531533	     -9.39114837	      3.53353506	      4.33091747	      5.01060231	      2.45579353	     -8.15311253	      6.00862766	     -9.48729081	     -3.18934504	     -3.27683839	     -1.31114518	      2.50552220
      1.30800000	     -3.63793703	      0.88158306	     -2.76451415	      0.32243575	      1.03679414	      0.26226712	     25.74262624	     -0.10246953	     -2.60123674	    -47.74912582	      6.75369648	     -9.53957362	      3.49256542	      3.99415162	      4.96145295	      2.44759717	     -7.99604642	      6.14602610	     -9.51861762	     -3.22965583	     -3.27609659	     -1.19795209	      2.45483290
      1.31216667	     -3.67969487	      0.81826309	     -2.77495067	      0.32761579	      1.03683516	      0.26219030	     25.99517767	      0.02476469	     -2.48061061	    -46.42281115	      6.70286318	     -9.74640695	      3.44087220	      3.63268321	      4.91693531	      2.46771445	     -7.82051653	      6.27278846	     -9.56169358	     -3.27935241	     -3.29357593	     -1.10256018	      2.37904852
      1.31633333	     -3.72762232	      0.77294630	     -2.77910503	      0.33279614	      1.03681489	      0.26212009	     26.23943420	      0.12753919	     -2.37481237	    -45.05650009	      6.58477751	    -10.00508685	      3.36439042	      3.27194213	      4.89190870	      2.50442064	     -7.62720399	      6.39080515	     -9.61514164	     -3.35687974	     -3.30482032	     -1.04388928	      2.27067493
      1.32050000	     -3.78820206	      0.73389906	     -2.77318176	      0.33797485	      1.03673416	      0.26203448	     26.47717220	      0.21455248	     -2.28762007	    -43.64947133	      6.49331796	    -10.19912587	      3.29275347	      2.93698180	      4.87375910	      2.53216542	     -7.45913372	      6.50525720	     -9.67454124	     -3.43089302	     -3.29561918	     -0.97888310	      2.17753905
      1.32466667	     -3.85960117	      0.69320464	     -2.75901414	      0.34315071	      1.03661640	      0.26195862	     26.69892095	      0.30411220	     -2.20170307	    -42.18199693	      6.34541248	    -10.43393743	      3.20540947	      2.61612975	      4.85267946	      2.57275111	     -7.29631624	      6.61497171	     -9.72945172	     -3.52135956	     -3.28200634	     -0.91344864	      2.06554965
      1.32883333	     -3.91983330	      0.65474013	     -2.73758265	      0.34833698	      1.03648838	      0.26187596	     26.88433108	      0.38268644	     -2.13541468	    -40.66616291	      6.18270238	    -10.64833695	      3.11123395	      2.28370576	      4.83396139	      2.61104897	     -7.13407472	      6.72306125	     -9.77744129	     -3.61910109	     -3.27680115	     -0.84766208	      1.95124934
